<svg xmlns="http://www.w3.org/2000/svg" width="16" height="16" id="refresh">
  <path d="M7.598 2.008c-2.331.123-4.388 1.7-5.014 3.988a.5.5 0 0 0 .965.264c.583-2.13 2.687-3.51 4.933-3.22 2.008.258 3.54 1.774 3.846 3.665l-.295-.29a.5.5 0 0 0-.36-.151.5.5 0 0 0-.343.861l1.211 1.195a.5.5 0 0 0 .703 0l1.21-1.195a.5.5 0 1 0-.702-.71l-.414.407c-.268-2.45-2.198-4.449-4.729-4.775a5.598 5.598 0 0 0-1.011-.04zm-4.5 5.994a.5.5 0 0 0-.342.143L1.546 9.34a.5.5 0 1 0 .702.713l.414-.408c.27 2.448 2.199 4.447 4.729 4.773 2.727.351 5.31-1.335 6.025-3.95a.5.5 0 0 0-.965-.263c-.583 2.13-2.687 3.512-4.933 3.223-2.007-.259-3.539-1.776-3.846-3.666l.295.29a.5.5 0 0 0 .703-.712L3.459 8.145a.5.5 0 0 0-.361-.143z" color="#000" font-family="sans-serif" font-weight="400" overflow="visible" style="line-height:normal;text-indent:0;text-align:start;text-decoration-line:none;text-decoration-style:solid;text-decoration-color:#000;text-transform:none;block-progression:tb;white-space:normal;isolation:auto;mix-blend-mode:normal;solid-color:#000;solid-opacity:1"></path>
</svg>
